<svg width="138" height="26" viewBox="0 0 138 26" fill="none" xmlns="http://www.w3.org/2000/svg">
<path d="M3.15882 20.3181C2.13012 20.3203 1.17978 19.7688 0.671302 18.8746C0.170149 17.9858 0.200201 16.8931 0.749444 16.0332L5.87209 7.98895C6.40586 7.10877 7.37193 6.58386 8.40085 6.61496C9.42902 6.6396 10.3642 7.21607 10.8482 8.12353C11.3257 9.0265 11.2661 10.1129 10.6941 10.9605L5.57471 19.0048C5.04708 19.827 4.13574 20.3224 3.15882 20.3181Z" fill="#F62B54"/>
<path d="M11.9456 20.3177C10.9124 20.3177 9.9617 19.7652 9.46246 18.8775C8.96242 17.9911 8.99248 16.9012 9.5406 16.0437L14.6535 8.0179C15.1796 7.12509 16.1485 6.58786 17.1844 6.6146C18.2263 6.63739 19.1705 7.2202 19.6481 8.13186C20.1223 9.04352 20.0529 10.1364 19.4636 10.9819L14.3518 19.0077C13.8258 19.8263 12.9187 20.3202 11.9456 20.3177Z" fill="#FFCC00"/>
<path d="M20.5357 20.3859C21.9923 20.3859 23.173 19.23 23.173 17.804C23.173 16.378 21.9923 15.222 20.5357 15.222C19.0792 15.222 17.8984 16.378 17.8984 17.804C17.8984 19.23 19.0792 20.3859 20.5357 20.3859Z" fill="#00CA72"/>
<path d="M135.107 15.3706C135.903 15.3706 136.38 15.9371 136.38 16.8651V20.045H137.462V16.7924C137.462 15.2143 136.718 14.2994 135.32 14.2994C134.773 14.2994 133.905 14.4492 133.388 15.4553C133.142 14.8507 132.585 14.4296 131.937 14.3591C131.736 14.3224 131.532 14.3104 131.329 14.3233C130.884 14.3591 130.091 14.6359 129.795 15.2632V14.4199H128.712V20.045H129.795V17.0094C129.795 15.8286 130.568 15.3706 131.342 15.3706C132.067 15.3706 132.543 15.9252 132.543 16.8531V20.045H133.62V17.0094C133.62 16.0695 134.184 15.3597 135.107 15.3706ZM124.737 19.1051C125.231 19.116 125.709 18.9185 126.055 18.5603C126.403 18.2022 126.587 17.7149 126.569 17.2145C126.569 16.0815 125.735 15.3706 124.737 15.3706C123.737 15.3706 122.905 16.0815 122.905 17.2145C122.885 17.7138 123.07 18.2 123.415 18.5571C123.76 18.9152 124.235 19.1138 124.728 19.1051H124.737ZM124.737 20.1601C123.154 20.1601 121.833 18.9912 121.833 17.208C121.833 15.4249 123.154 14.2929 124.737 14.2929C126.319 14.2929 127.651 15.4249 127.651 17.208C127.651 18.9912 126.311 20.1655 124.729 20.1655L124.737 20.1601ZM116.26 17.208L116.249 17.2145C116.249 15.4314 117.605 14.2994 119.198 14.2929C120.008 14.2772 120.786 14.6054 121.34 15.1959L120.519 15.8948C120.167 15.5492 119.692 15.3585 119.198 15.3652C118.2 15.3652 117.332 16.0761 117.332 17.208C117.332 17.9732 117.786 18.6623 118.484 18.9554C119.182 19.2484 119.985 19.0856 120.519 18.5451L121.352 19.2441C120.796 19.8407 120.013 20.1736 119.198 20.1601C117.617 20.1601 116.26 18.9912 116.26 17.208ZM112.795 18.9651C112.793 18.7665 112.869 18.5751 113.008 18.4331C113.147 18.291 113.337 18.2099 113.535 18.2076C113.734 18.2099 113.923 18.291 114.062 18.4331C114.201 18.5751 114.278 18.7665 114.275 18.9651C114.255 19.3605 113.931 19.6719 113.535 19.676C113.139 19.6719 112.815 19.3605 112.795 18.9651Z" fill="#333333"/>
<path d="M115.756 7.2694H111.902L109.201 14.2338L106.514 7.2694H102.66L107.345 18.2744L104.431 25.5503H108.257L115.756 7.2694ZM92.3177 13.3905C92.3177 15.1487 93.8545 16.3057 95.3642 16.3057C96.8478 16.3057 98.3053 15.229 98.3053 13.3894C98.3053 11.5498 96.8478 10.4721 95.3642 10.4721C93.8545 10.4721 92.3177 11.6302 92.3177 13.3894V13.3905ZM98.3053 19.5355V18.1431C97.5239 19.3261 95.7006 19.7732 94.7651 19.7732C91.6676 19.7732 88.5691 17.3313 88.5691 13.3894C88.5691 9.44869 91.6665 7.00675 94.7651 7.00675C95.5454 7.00675 97.3687 7.26723 98.3053 8.63471V7.27374H101.898V19.5377L98.3053 19.5366V19.5355ZM87.5467 19.5355H83.9543V18.0118C83.3542 19.1405 81.8988 19.7982 80.388 19.7982C77.2634 19.7982 74.5035 17.303 74.5035 13.4394C74.5035 9.50296 77.2634 7.00458 80.388 7.00458C81.8966 7.00458 83.3563 7.63406 83.9543 8.76386V0.588257H87.5467V19.5355ZM83.8762 13.3623C83.8762 11.5238 82.5489 10.4461 81.0653 10.4461C79.5285 10.4461 78.2522 11.6019 78.2522 13.3623C78.2522 15.1791 79.5285 16.3295 81.0642 16.3295C82.576 16.3317 83.8762 15.1227 83.8762 13.3623ZM65.6214 13.0454C65.6214 11.1808 66.5851 10.5503 67.8604 10.5503C69.0835 10.5503 69.9691 11.3643 69.9691 12.9922V19.5334H73.5875V12.2054C73.5875 8.71285 71.8684 7.00458 69.1345 7.00458C67.703 7.00458 66.2715 7.81856 65.6203 9.05364V7.2694H62.004V19.5334H65.6214V13.0454ZM54.6565 19.7439C51.2205 19.7439 48.3542 17.2227 48.3542 13.3612C48.3542 9.49753 51.2172 7.00133 54.6565 7.00133C58.0959 7.00133 60.9839 9.49753 60.9839 13.3612C60.9839 17.2249 58.0926 19.745 54.6565 19.745V19.7439ZM54.6565 16.1732C56.1651 16.1732 57.4165 15.0684 57.4165 13.3623C57.4165 11.7072 56.1662 10.5774 54.6565 10.5774C53.9219 10.5659 53.2148 10.8567 52.7008 11.3816C52.1839 11.9092 51.9031 12.6239 51.9226 13.3623C51.9237 15.0706 53.1729 16.1732 54.6565 16.1732ZM41.8673 10.5514C42.9341 10.5514 43.8718 11.3925 43.8718 12.9933V19.5355H47.4642V12.57C47.4642 8.86697 45.6637 7.00241 42.7779 7.00241C41.9205 7.00241 40.3055 7.26289 39.1334 9.18171C38.4562 7.76321 37.1549 7.02737 35.2317 7.02737C33.868 7.02044 32.6262 7.81153 32.0561 9.05038V7.27048H28.4355V19.5344H32.0529V13.0454C32.0529 11.1808 33.0687 10.5503 34.1616 10.5503C35.2035 10.5503 36.139 11.3643 36.1662 12.9141V19.5344H39.7846V13.0454C39.7846 11.2622 40.7223 10.5524 41.8673 10.5524V10.5514Z" fill="#333333"/>
</svg>
