<svg width="139" height="30" viewBox="0 0 139 30" fill="none" xmlns="http://www.w3.org/2000/svg">
<path d="M136.885 10.7538C137.96 11.6237 136.822 12.9997 135.873 12.3038C134.702 11.5605 132.045 11.2126 131.713 12.8573C131.286 15.4513 138.166 13.9646 138.055 18.1716C137.945 22.1891 132.124 22.2839 129.942 20.4808C129.42 20.0539 129.436 19.3579 129.72 18.9308C130.131 18.5197 130.59 18.3773 131.128 18.8201C132.425 19.7058 135.762 20.3702 135.999 18.1243C135.794 15.7834 129.214 17.191 129.704 12.6993C130.068 9.63086 134.702 9.07724 136.885 10.7538ZM126.509 11.3706V17.0962C126.509 23.0114 116.972 23.0114 116.972 17.0962V11.3706C116.972 9.94725 119.044 9.88392 119.044 11.3706V17.0962C119.044 20.2119 124.437 20.4018 124.437 17.0962V11.3706C124.437 9.96295 126.509 9.85226 126.509 11.3706ZM61.2014 9.93142C63.9692 10.0737 66.8636 11.9874 66.8636 15.736C66.8636 19.4844 63.9692 21.4299 61.2014 21.4299C58.2753 21.5564 55.2386 19.611 55.2386 15.736C55.2386 11.8451 58.2753 9.93142 61.2014 9.93142ZM75.1359 10.3267C79.1533 10.3267 79.9757 15.7043 76.6227 17.0487L78.7262 19.611C79.5486 20.8289 77.9037 21.9992 76.9548 20.7972L74.5665 17.3809H72.0833V20.2436C72.0833 21.6196 69.9797 21.6671 69.9797 20.2753V11.2916C69.9797 10.738 70.4068 10.3267 70.9288 10.3267H75.1359ZM42.3635 10.1845C42.8222 10.1845 43.0911 10.4534 43.36 10.7538L46.8395 15.4513L50.4457 10.5798C50.9676 9.93143 52.2488 10.1845 52.2488 11.2758V20.1804C52.2488 20.8763 51.8059 21.2717 51.2998 21.2717C50.7304 21.2717 50.2875 20.8763 50.2875 20.1804V14.3283L47.662 17.6498C47.0926 18.3456 46.3809 18.3456 45.8589 17.6498L43.5023 14.3283V20.1804C43.5023 20.8763 42.9329 21.2717 42.3635 21.2717C41.8574 21.2717 41.4146 20.8763 41.4146 20.1804V11.2758C41.4146 10.4534 42.1105 10.1845 42.3635 10.1845ZM86.6031 10.1845C88.6593 10.1845 90.5098 11.5605 90.5098 14.2018C90.5098 16.7007 88.6593 18.0926 86.6031 18.0926H83.9618V20.1804C83.9618 20.8763 83.5189 21.2717 82.9495 21.2717C82.4276 21.2717 81.874 20.8763 81.874 20.1804V11.2758C81.874 10.7538 82.2853 10.1845 82.9495 10.1845H86.6031ZM101.708 10.3267C102.262 10.3267 102.689 10.738 102.689 11.3074V20.2911C102.689 20.8446 102.262 21.2717 101.708 21.2717C101.139 21.2717 100.633 20.8446 100.633 20.2911V16.8273H95.4766V20.2911C95.4766 20.8446 95.0654 21.2717 94.5118 21.2717C93.8001 21.2717 93.3888 20.8446 93.3888 20.2911V11.3074C93.3888 10.738 93.8001 10.3267 94.5118 10.3267C95.0654 10.3267 95.4766 10.738 95.4766 11.3074V14.7554H100.633V11.3074C100.633 10.738 101.139 10.3267 101.708 10.3267ZM112.717 10.3267C114.172 10.3267 114.14 12.3829 112.717 12.3829H108.162V14.7554H112.147C113.555 14.7554 113.555 16.8273 112.147 16.8273H108.162V19.1997H112.986C114.425 19.1997 114.536 21.2717 112.986 21.2717H107.039C106.485 21.2717 106.058 20.8446 106.058 20.2911V11.3074C106.058 10.738 106.485 10.3267 107.039 10.3267H112.717ZM61.0273 11.9874C59.2559 11.9874 57.3263 13.2371 57.3263 15.736C57.3263 18.2191 59.2559 19.4844 61.0273 19.4844C62.8463 19.4844 64.7917 18.2191 64.7917 15.736C64.7917 13.2371 62.8463 11.9874 61.0273 11.9874ZM86.6031 12.1773H83.9618V16.1156H86.6031C87.6628 16.1156 88.5011 15.1824 88.5011 14.2018C88.5011 13.0947 87.6628 12.1773 86.6031 12.1773ZM75.1359 12.2405H72.0833V15.562H75.1359C77.192 15.562 77.3185 12.2405 75.1359 12.2405Z" fill="#3DB5E6"/>
<path d="M28.8682 18.63C27.3262 24.8251 21.6843 29.2326 15.0395 29.2326C8.36456 29.2326 2.77128 24.5642 1.29248 18.3436C3.07066 18.3436 4.73299 18.3517 5.50474 18.3517C5.8688 18.3517 5.9395 18.358 5.96056 18.3565C6.54125 18.3279 7.26937 18.1363 7.75378 16.9584L9.59965 12.1298L13.6991 21.9999C14.0677 22.7867 14.6829 22.731 15.05 22.731H15.0846C15.8007 22.731 16.1121 22.48 16.3844 21.961L21.0149 12.2038L22.5945 16.6011L22.6907 16.8141C23.0247 17.5467 23.265 18.2703 24.0915 18.3649C24.2618 18.3844 26.2404 18.3498 28.9076 18.3498C28.9076 18.3498 28.9076 18.3669 28.8682 18.63Z" fill="#3DB5E6"/>
<path d="M29.3209 14.9813C29.3209 15.055 29.3209 15.2404 29.3194 15.2404H29.3164H25.0591L22.5753 8.30208C22.3541 7.78608 22.0217 7.01253 21.0528 7.01253C20.4601 7.01253 19.9245 7.50205 19.6207 8.3099L15.1181 18.7393L10.7839 8.37316C10.3597 7.45248 10.0664 7.01949 9.2179 7.01949C8.64172 7.01949 8.21899 7.23173 7.75865 8.3224L5.18616 15.3434L0.912223 15.3389C0.909212 15.2321 0.907715 15.1253 0.907715 15.0185C0.907715 7.21379 7.23513 0.906128 15.0398 0.906128C22.8445 0.906128 29.3209 7.17655 29.3209 14.9813Z" fill="#D8292F"/>
</svg>
