<svg width="138" height="22" viewBox="0 0 138 22" fill="none" xmlns="http://www.w3.org/2000/svg">
<path d="M19.7721 21.7498V16.1895H13.7168C12.0701 16.1895 10.5448 17.0539 9.70137 18.4652L7.73828 21.7498H19.7721Z" fill="#63D2F9"/>
<path d="M0.5 0.388672V5.94906H16.449L19.7722 0.388672H0.5Z" fill="#4E5EE4"/>
<path d="M8.13304 9.07888L0.517578 21.7499H7.00577L16.1125 6.59082H12.5297C10.7276 6.59082 9.05802 7.53562 8.13304 9.07888Z" fill="#63B0F9"/>
<path d="M33.5764 16.4131C30.3138 16.4131 27.9131 14.0416 27.9131 10.8592C27.9131 7.70744 30.3292 5.30535 33.5918 5.30535C36.8543 5.30535 39.2704 7.73804 39.2704 10.8592C39.2704 14.011 36.8389 16.4131 33.5764 16.4131ZM33.5918 14.47C35.6539 14.47 37.1313 12.94 37.1313 10.8592C37.1313 8.80903 35.6539 7.24844 33.5918 7.24844C31.5142 7.24844 30.0368 8.80903 30.0368 10.8592C30.0368 12.94 31.5142 14.47 33.5918 14.47ZM41.4552 19.7332V8.16644H43.425V9.19153H43.5327C43.7482 8.85493 44.4869 7.96754 45.9643 7.96754C48.2265 7.96754 49.7808 9.65053 49.7808 12.1597C49.7808 14.6689 48.2419 16.4131 46.0258 16.4131C44.5946 16.4131 43.8251 15.6175 43.5635 15.1738H43.4558V19.7332H41.4552ZM45.5795 14.6077C46.8722 14.6077 47.7494 13.6132 47.7494 12.1903C47.7494 10.7215 46.8722 9.77293 45.5641 9.77293C44.2406 9.77293 43.4096 10.8286 43.4096 12.1903C43.4096 13.6897 44.333 14.6077 45.5795 14.6077ZM55.5051 16.4131C53.1197 16.4131 51.4269 14.6383 51.4269 12.2362C51.4269 9.69643 53.1351 7.96754 55.5051 7.96754C58.1059 7.96754 59.5217 9.88003 59.5217 12.1444V12.7717H53.366C53.4275 13.9957 54.2739 14.8219 55.5667 14.8219C56.5516 14.8219 57.3057 14.3629 57.5827 13.705H59.4448C59.0447 15.3421 57.5981 16.4131 55.5051 16.4131ZM53.3968 11.3641H57.6134C57.5211 10.2778 56.6747 9.55873 55.5051 9.55873C54.3817 9.55873 53.5199 10.3543 53.3968 11.3641ZM61.6757 16.2142V8.16644H63.584V9.14563H63.6917C64.0149 8.54893 64.8151 7.96754 65.9693 7.96754C67.7853 7.96754 68.8933 9.23743 68.8933 10.951V16.2142H66.8927V11.4712C66.8927 10.492 66.2617 9.83413 65.3383 9.83413C64.3688 9.83413 63.6763 10.5991 63.6763 11.6089V16.2142H61.6757ZM70.8779 16.2142V14.3935L76.4797 7.37084V7.26374H71.078V5.50425H79.0343V7.30964L73.4326 14.3323V14.4547H79.0651V16.2142H70.8779ZM84.4816 16.4131C82.0962 16.4131 80.4034 14.6383 80.4034 12.2362C80.4034 9.69643 82.1116 7.96754 84.4816 7.96754C87.0824 7.96754 88.4982 9.88003 88.4982 12.1444V12.7717H82.3425C82.404 13.9957 83.2504 14.8219 84.5431 14.8219C85.5281 14.8219 86.2821 14.3629 86.5592 13.705H88.4213C88.0211 15.3421 86.5745 16.4131 84.4816 16.4131ZM82.3732 11.3641H86.5899C86.4976 10.2778 85.6512 9.55873 84.4816 9.55873C83.3582 9.55873 82.4964 10.3543 82.3732 11.3641ZM90.6522 19.7332V8.16644H92.622V9.19153H92.7297C92.9452 8.85493 93.6839 7.96754 95.1612 7.96754C97.4235 7.96754 98.9778 9.65053 98.9778 12.1597C98.9778 14.6689 97.4389 16.4131 95.2228 16.4131C93.7916 16.4131 93.0221 15.6175 92.7605 15.1738H92.6528V19.7332H90.6522ZM94.7765 14.6077C96.0692 14.6077 96.9464 13.6132 96.9464 12.1903C96.9464 10.7215 96.0692 9.77293 94.7611 9.77293C93.4376 9.77293 92.6066 10.8286 92.6066 12.1903C92.6066 13.6897 93.53 14.6077 94.7765 14.6077ZM101.132 19.7332V8.16644H103.102V9.19153H103.209C103.425 8.85493 104.163 7.96754 105.641 7.96754C107.903 7.96754 109.457 9.65053 109.457 12.1597C109.457 14.6689 107.918 16.4131 105.702 16.4131C104.271 16.4131 103.502 15.6175 103.24 15.1738H103.132V19.7332H101.132ZM105.256 14.6077C106.549 14.6077 107.426 13.6132 107.426 12.1903C107.426 10.7215 106.549 9.77293 105.241 9.77293C103.917 9.77293 103.086 10.8286 103.086 12.1903C103.086 13.6897 104.01 14.6077 105.256 14.6077ZM115.182 16.4131C112.796 16.4131 111.104 14.6383 111.104 12.2362C111.104 9.69643 112.812 7.96754 115.182 7.96754C117.782 7.96754 119.198 9.88003 119.198 12.1444V12.7717H113.043C113.104 13.9957 113.951 14.8219 115.243 14.8219C116.228 14.8219 116.982 14.3629 117.259 13.705H119.121C118.721 15.3421 117.275 16.4131 115.182 16.4131ZM113.073 11.3641H117.29C117.198 10.2778 116.351 9.55873 115.182 9.55873C114.058 9.55873 113.196 10.3543 113.073 11.3641ZM123.322 16.2142C121.906 16.2142 121.106 15.3727 121.106 13.9498V4.73926H123.107V13.7662C123.107 14.2252 123.337 14.47 123.753 14.47H124.076V16.2142H123.322ZM127 7.09544C126.276 7.09544 125.768 6.65175 125.768 5.93265C125.768 5.24415 126.276 4.78516 127 4.78516C127.723 4.78516 128.231 5.24415 128.231 5.93265C128.231 6.65175 127.723 7.09544 127 7.09544ZM125.999 16.2142V8.16644H128V16.2142H125.999ZM130.431 16.2142V8.16644H132.339V9.14563H132.447C132.77 8.54893 133.57 7.96754 134.724 7.96754C136.54 7.96754 137.648 9.23743 137.648 10.951V16.2142H135.648V11.4712C135.648 10.492 135.017 9.83413 134.094 9.83413C133.124 9.83413 132.431 10.5991 132.431 11.6089V16.2142H130.431Z" fill="#282846"/>
</svg>
