<svg width="138" height="18" viewBox="0 0 138 18" fill="none" xmlns="http://www.w3.org/2000/svg">
<path d="M59.412 11.7542H68.4744L63.6825 4.04474L54.8877 17.9838H50.885L61.5825 1.24002C62.0476 0.563504 62.8227 0.154785 63.6825 0.154785C64.514 0.154785 65.2892 0.549418 65.7402 1.21184L76.4799 17.9838H72.4772L70.5886 14.869H61.4133L59.412 11.7542ZM100.99 14.869V0.323914H97.5929V16.2925C97.5929 16.7294 97.762 17.1522 98.0862 17.4764C98.4103 17.8006 98.8472 17.9838 99.3264 17.9838H114.816L116.817 14.869H100.99ZM44.7964 12.2616C48.0945 12.2616 50.7724 9.59782 50.7724 6.2998C50.7724 3.00179 48.0945 0.323914 44.7964 0.323914H29.937V17.9838H33.3323V3.43871H44.5709C46.1495 3.43871 47.4179 4.72126 47.4179 6.2998C47.4179 7.87834 46.1495 9.1609 44.5709 9.1609L34.9954 9.1468L45.1346 17.9838H50.0676L43.2461 12.2616H44.7964ZM9.03553 17.9838C4.16034 17.9838 0.204102 14.0375 0.204102 9.1609C0.204102 4.28435 4.16034 0.323914 9.03553 0.323914H19.3002C24.1767 0.323914 28.1301 4.28435 28.1301 9.1609C28.1301 14.0375 24.1767 17.9838 19.3002 17.9838H9.03553ZM19.0719 14.869C22.2304 14.869 24.7885 12.318 24.7885 9.1609C24.7885 6.00383 22.2304 3.43871 19.0719 3.43871H9.2624C6.10532 3.43871 3.54578 6.00383 3.54578 9.1609C3.54578 12.318 6.10532 14.869 9.2624 14.869H19.0719ZM83.5692 17.9838C78.6926 17.9838 74.7323 14.0375 74.7323 9.1609C74.7323 4.28435 78.6926 0.323914 83.5692 0.323914H95.7606L93.7733 3.43871H83.7947C80.6376 3.43871 78.0726 6.00383 78.0726 9.1609C78.0726 12.318 80.6376 14.869 83.7947 14.869H96.0424L94.0411 17.9838H83.5692ZM125.104 14.869C122.497 14.869 120.284 13.1213 119.608 10.7112H134.125L136.126 7.59645H119.608C120.284 5.20046 122.497 3.43871 125.104 3.43871H135.069L137.084 0.323914H124.879C120.002 0.323914 116.042 4.28435 116.042 9.1609C116.042 14.0375 120.002 17.9838 124.879 17.9838H135.351L137.352 14.869H125.104Z" fill="#EA1B22"/>
</svg>
