<svg width="138" height="33" viewBox="0 0 138 33" fill="none" xmlns="http://www.w3.org/2000/svg">
<path d="M1.02041 24.3274C0.855933 24.2324 0.721191 23.9995 0.721191 23.8104V8.32749C0.721191 8.1381 0.855933 7.90557 1.02041 7.81035L14.6012 0.0712809C14.7658 -0.0237603 15.0351 -0.0237603 15.1998 0.0712809L28.7797 7.81121C28.9443 7.90625 29.0789 8.13879 29.0789 8.32818V23.8111C29.0789 24 28.9443 24.2327 28.7797 24.3281L15.1998 32.0674C15.0351 32.1624 14.7658 32.1624 14.6012 32.0674L1.02041 24.3274ZM41.8352 9.86843V16.1484H44.5206C46.4695 16.1484 47.3357 15.3544 47.3357 14.0551V11.9617C47.3357 10.6626 46.4695 9.86843 44.5206 9.86843H41.8352ZM41.8352 18.1454V23.7517C41.8352 24.0884 41.7486 24.2327 41.4454 24.2327H40.1243C39.8428 24.2327 39.7345 24.0884 39.7345 23.7517V8.35276C39.7345 8.0159 39.8428 7.87137 40.1243 7.87137H44.5206C48.2454 7.87137 49.4364 9.60376 49.4364 11.5768V14.4402C49.4364 16.413 48.2454 18.1454 44.5206 18.1454H41.8352ZM54.3236 9.86843V15.7634H57.0088C58.9579 15.7634 59.8243 14.9934 59.8243 13.6701V11.9617C59.8243 10.6626 58.9579 9.86843 57.0088 9.86843H54.3236ZM54.3236 17.7605V23.7517C54.3236 24.0884 54.2368 24.2327 53.9336 24.2327H52.6127C52.3312 24.2327 52.2229 24.0884 52.2229 23.7517V8.35276C52.2229 8.0159 52.3312 7.87137 52.6127 7.87137H57.0088C60.7338 7.87137 61.9248 9.60376 61.9248 11.5768V14.0791C61.9248 15.5468 61.2535 16.8702 59.391 17.4478L61.9898 23.7517C62.0981 24.0404 61.9032 24.2327 61.6 24.2327H60.3005C59.9974 24.2327 59.9541 24.0404 59.8243 23.7517L57.3769 17.7605H54.3236ZM73.3093 11.7693C73.3093 10.47 72.3952 9.67595 70.338 9.67595C68.3036 9.67595 67.3894 10.47 67.3894 11.7693V20.3348C67.3894 21.6343 68.3036 22.4281 70.338 22.4281C72.3952 22.4281 73.3093 21.6343 73.3093 20.3348V11.7693ZM65.1494 11.3843C65.1494 9.41127 66.4294 7.67905 70.338 7.67905C74.2694 7.67905 75.5496 9.41127 75.5496 11.3843V20.72C75.5496 22.693 74.2694 24.4254 70.338 24.4254C66.4294 24.4254 65.1494 22.693 65.1494 20.72V11.3843ZM87.6183 7.87137C87.9154 7.87137 88.0526 7.99184 88.0526 8.32853V9.41127C88.0526 9.74813 87.9154 9.86843 87.6183 9.86843H83.9612V23.7517C83.9612 24.0884 83.8469 24.2327 83.5495 24.2327H82.1325C81.8354 24.2327 81.7211 24.0884 81.7211 23.7517V9.86843H78.0638C77.744 9.86843 77.6297 9.74813 77.6297 9.41127V8.32853C77.6297 7.99184 77.744 7.87137 78.0638 7.87137H87.6183ZM98.2705 11.7693C98.2705 10.47 97.3561 9.67595 95.2991 9.67595C93.2647 9.67595 92.3504 10.47 92.3504 11.7693V20.3348C92.3504 21.6343 93.2647 22.4281 95.2991 22.4281C97.3561 22.4281 98.2705 21.6343 98.2705 20.3348V11.7693ZM90.1103 11.3843C90.1103 9.41127 91.3904 7.67905 95.2991 7.67905C99.2305 7.67905 100.511 9.41127 100.511 11.3843V20.72C100.511 22.693 99.2305 24.4254 95.2991 24.4254C91.3904 24.4254 90.1103 22.693 90.1103 20.72V11.3843ZM113.741 23.7756C113.741 24.0884 113.655 24.2327 113.351 24.2327H112.16C111.944 24.2327 111.857 24.1605 111.771 24.0162L106.681 14.1034C106.205 13.2129 105.945 12.467 105.902 12.3708V23.7756C105.902 24.0884 105.793 24.2327 105.512 24.2327H104.299C104.018 24.2327 103.909 24.0884 103.909 23.7756V8.32853C103.909 8.0159 104.018 7.87137 104.299 7.87137H105.512C105.685 7.87137 105.793 7.94355 105.858 8.06385L111.077 18.1936C111.381 18.771 111.749 19.7333 111.749 19.7333V8.32853C111.749 8.0159 111.879 7.87137 112.16 7.87137H113.351C113.655 7.87137 113.741 8.0159 113.741 8.32853V23.7756ZM117.465 24.2327C117.184 24.2327 117.076 24.0884 117.076 23.7517V8.35276C117.076 8.0159 117.184 7.87137 117.465 7.87137H124.872C125.153 7.87137 125.283 7.99184 125.283 8.32853V9.41127C125.283 9.74813 125.153 9.86843 124.872 9.86843H119.176V14.7288H124.482C124.785 14.7288 124.915 14.8491 124.915 15.1859V16.2206C124.915 16.5334 124.785 16.6777 124.482 16.6777H119.176V22.2358H125.11C125.391 22.2358 125.521 22.3321 125.521 22.6688V23.7756C125.521 24.1126 125.391 24.2327 125.11 24.2327H117.465ZM137.458 7.87137C137.739 7.87137 137.869 7.99184 137.869 8.32853V9.41127C137.869 9.74813 137.739 9.86843 137.458 9.86843H133.993V23.7517C133.993 24.0884 133.884 24.2327 133.603 24.2327H132.26C131.979 24.2327 131.871 24.0884 131.871 23.7517V9.86843H128.406C128.102 9.86843 127.994 9.74813 127.994 9.41127V8.32853C127.994 7.99184 128.102 7.87137 128.406 7.87137H137.458Z" fill="#E15B29"/>
</svg>
