<svg width="138" height="22" viewBox="0 0 138 22" fill="none" xmlns="http://www.w3.org/2000/svg">
<path d="M130.825 9.79236V12.6518H132.835V15.4889C132.84 15.7062 132.831 15.9381 132.8 16.1377L132.783 16.2346C132.78 16.2562 132.776 16.2784 132.771 16.3012L132.755 16.371C132.752 16.3828 132.749 16.3948 132.745 16.4069L132.722 16.4805C132.541 17.0029 131.997 17.6649 130.774 17.6649C129.472 17.6649 128.95 16.9049 128.807 16.371L128.79 16.3012L128.777 16.2346C128.741 16.0158 128.726 15.7424 128.726 15.4889V6.52805C128.726 6.24631 128.743 5.94089 128.794 5.69208L128.828 5.54088C128.831 5.53041 128.833 5.51976 128.836 5.50896L128.855 5.44237C128.859 5.43099 128.862 5.41948 128.866 5.40784L128.891 5.33666C129.077 4.84156 129.568 4.18217 130.764 4.18217C131.687 4.18217 132.183 4.55819 132.449 4.94683L132.496 5.01976C132.511 5.04405 132.525 5.06832 132.538 5.09245L132.575 5.16437L132.608 5.23499L132.636 5.30378L132.661 5.3702L132.681 5.43373L132.698 5.49382L132.712 5.54995L132.724 5.60158C132.729 5.62726 132.734 5.65452 132.738 5.68286L132.75 5.77064C132.751 5.78564 132.753 5.80079 132.755 5.81602L132.767 5.95365L132.775 6.08565L132.782 6.26563L132.783 6.35786V7.44597H137.721L137.722 6.76862L137.725 6.52638L137.724 6.3386L137.72 6.11995L137.716 6.00224L137.707 5.81877L137.695 5.63082L137.684 5.50516C137.35 2.19501 134.862 0.921454 131.834 0.699845L131.632 0.686618L131.428 0.676444C131.325 0.672109 131.222 0.668894 131.119 0.666763L130.911 0.663936C130.877 0.663585 130.842 0.663585 130.807 0.663585L130.599 0.665005C130.565 0.66548 130.53 0.666075 130.495 0.666792L130.289 0.672558L130.085 0.681302L129.881 0.693085L129.68 0.707972C129.613 0.713459 129.546 0.719473 129.48 0.726026L129.282 0.74731C129.249 0.75113 129.217 0.755087 129.184 0.759183L128.989 0.78543C128.537 0.850602 128.102 0.943444 127.689 1.06757L127.514 1.1227C125.601 1.75037 124.21 3.08486 123.925 5.50516L123.895 5.77382L123.875 5.98183L123.856 6.19992L123.841 6.41689C123.832 6.55867 123.826 6.69226 123.826 6.80272L123.826 15.1515L123.828 15.2552L123.832 15.4127L123.837 15.5231L123.844 15.641L123.853 15.7692L123.864 15.9105L123.886 16.1529L123.904 16.3388C124.181 19.4148 126.513 20.7832 129.365 21.106L129.565 21.1269C129.9 21.1588 130.241 21.1768 130.586 21.1819L130.794 21.1834L131.002 21.1819C131.349 21.1768 131.692 21.1588 132.028 21.1269L132.228 21.106C135.09 20.7832 137.407 19.4148 137.688 16.3388L137.711 16.0676L137.728 15.8381L137.743 15.5809L137.752 15.3594L137.76 15.0458V9.79236H130.825ZM96.7784 1.19102H91.8197V15.6956C91.8275 15.9484 91.8197 16.2323 91.7762 16.4406L91.7616 16.5037L91.7435 16.5709C91.7368 16.5939 91.7296 16.6175 91.7216 16.6415L91.6957 16.7151C91.5086 17.2138 91.0321 17.8645 89.892 17.8645C88.8229 17.8645 88.3348 17.2772 88.1303 16.7909L88.1004 16.7151C88.0958 16.7026 88.0913 16.6903 88.0871 16.678L88.0637 16.6058L88.0444 16.5368C88.0415 16.5256 88.0387 16.5145 88.0362 16.5037L88.0225 16.4406C87.9729 16.2323 87.9666 15.9484 87.9729 15.6956V1.19102H83.0157V15.2455L83.0148 15.3584L83.0166 15.556L83.0235 15.8467L83.0371 16.2L83.0466 16.3779L83.053 16.4723L83.0593 16.5418C83.3022 19.142 84.8277 20.4955 86.982 21.0618L87.1656 21.1078C87.5664 21.2035 87.9877 21.2732 88.4255 21.3197L88.6287 21.3396L88.8341 21.3562L89.0417 21.3697C89.1461 21.3756 89.2512 21.3804 89.357 21.3841L89.5696 21.3899L89.7841 21.3928C89.82 21.3932 89.856 21.3932 89.892 21.3932L90.1078 21.3917C90.1436 21.3912 90.1794 21.3906 90.215 21.3899L90.428 21.3841C90.534 21.3804 90.6393 21.3756 90.7438 21.3697L90.9518 21.3562L91.1575 21.3396L91.361 21.3197C94.2612 21.0117 96.4367 19.6914 96.7363 16.5418L96.7403 16.5105L96.7484 16.4279L96.7604 16.2634L96.7711 16.0642L96.777 15.9203L96.7831 15.6995L96.7848 15.556L96.7842 15.4212L96.7811 15.2997C96.7803 15.2808 96.7794 15.2627 96.7784 15.2455V1.19102ZM51.2176 1.19102L48.7441 16.5171L46.272 1.19102H38.2734L37.8492 20.7975H42.7494L42.8821 2.64719L46.2537 20.7975H51.2254L54.6 2.64719L54.7331 20.7975H59.6457L59.2071 1.19102H51.2176ZM21.6029 1.19102L17.9711 20.7975H23.2673L26.0042 2.64719L28.6754 20.7975H33.9348L30.3181 1.19102H21.6029ZM114.108 16.9765L109.491 1.19102H102.215V20.5931H107.028L106.749 4.30251L111.707 20.5931H118.685V1.19102H113.841L114.108 16.9765ZM69.5874 6.29367C69.5003 5.90646 69.5255 5.49509 69.5705 5.28009C69.5833 5.22303 69.5984 5.1655 69.6162 5.10806L69.6449 5.02203C69.8405 4.47849 70.2981 3.96792 71.3475 3.96792C72.4799 3.96792 73.1438 4.67385 73.1438 5.73325V6.93213H77.9775V5.56558C77.9775 2.48169 75.9592 1.29538 73.8025 0.879595L73.625 0.847133L73.4471 0.818002L73.269 0.792062L73.091 0.769176L72.9133 0.749203L72.7361 0.732006C72.6772 0.72672 72.6184 0.721874 72.5597 0.717443L72.3843 0.705378L72.2102 0.69567L72.0375 0.688181L71.8665 0.682771L71.6974 0.679302L71.4479 0.677432L71.3379 0.677819L71.1192 0.68094C71.0829 0.681723 71.0467 0.682638 71.0106 0.683686L70.7948 0.691581C70.7231 0.694752 70.6518 0.698464 70.5809 0.702726L70.3692 0.71717C67.4203 0.942746 65.119 2.15405 64.6587 4.99459C64.5225 5.85963 64.4888 6.6275 64.7056 7.60734C65.0468 9.21749 66.3881 10.3633 67.9278 11.3243L68.1661 11.4707C68.2061 11.4949 68.2461 11.519 68.2863 11.5429L68.5281 11.6854L68.7714 11.8255L69.0156 11.9636L69.3821 12.1671L70.345 12.6948L70.5789 12.8245L70.8089 12.9538L71.0342 13.0829L71.2541 13.212C72.3035 13.8365 73.1443 14.4699 73.4469 15.2271C73.6143 15.6769 73.5777 16.244 73.4967 16.6058L73.4829 16.6641C73.4629 16.7511 73.4377 16.8381 73.4061 16.9237L73.3722 17.0087C73.1496 17.529 72.6628 17.9725 71.5932 17.9725C70.3731 17.9725 69.6388 17.2711 69.6388 16.214L69.6373 14.3323H64.4344V15.828C64.4344 19.3386 66.6617 20.8635 69.4512 21.3163L69.6588 21.3479C69.7979 21.3676 69.9382 21.3849 70.0796 21.3996L70.2925 21.4199C70.5418 21.4415 70.794 21.4558 71.0481 21.4633L71.2664 21.4681C71.3028 21.4686 71.3393 21.469 71.3758 21.4693L71.4854 21.4697C71.5584 21.4697 71.6311 21.4692 71.7035 21.4681L71.9198 21.4634C71.9557 21.4623 71.9916 21.4611 72.0273 21.4598L72.241 21.4503C72.3119 21.4465 72.3825 21.4423 72.4527 21.4374L72.6624 21.4213C72.8015 21.4094 72.9392 21.3952 73.0753 21.3788L73.2783 21.3524L73.4788 21.3225C73.5453 21.3119 73.6113 21.3008 73.6769 21.289L73.8723 21.2519C76.2336 20.7788 77.9905 19.496 78.3433 17.0294C78.3919 16.6615 78.4218 16.3218 78.4379 16.0112L78.4466 15.8085C78.4478 15.7755 78.4487 15.7428 78.4496 15.7104L78.4528 15.5208V15.34L78.4498 15.1681L78.4442 15.0051L78.4363 14.8511C78.4348 14.8262 78.4332 14.8017 78.4316 14.7775L78.4208 14.6372L78.4086 14.5061L78.3952 14.3842L78.3737 14.2188L78.3514 14.0746L78.3223 13.9157L78.3088 13.8507C77.9684 12.1433 76.4736 10.9374 74.813 9.94469L74.5748 9.8043L74.3349 9.66663L74.094 9.53148L73.7324 9.33309L73.2527 9.07568L72.4346 8.64056L72.098 8.45843C72.0612 8.4383 72.0246 8.4182 71.9882 8.39813L71.7728 8.278L71.5635 8.15835C70.5332 7.56096 69.7544 6.9744 69.5874 6.29367ZM5.82371 6.24558C5.73473 5.87502 5.74864 5.48522 5.79429 5.25871L5.81319 5.1739L5.83463 5.08998C5.99793 4.50124 6.4444 3.89441 7.59836 3.89441C8.74512 3.89441 9.42034 4.60713 9.42034 5.6751V6.88857H14.3108V5.5112C14.3108 2.56832 12.48 1.3324 10.4342 0.848937L10.2558 0.80877C10.1068 0.77684 9.95686 0.748715 9.80666 0.724033L9.62633 0.696044L9.44598 0.67122L9.26585 0.649423L9.08617 0.630512C9.02637 0.624674 8.9667 0.619294 8.90717 0.614348L8.7291 0.600792L8.55219 0.589704L8.37667 0.580945L8.20278 0.574375L8.03076 0.569855L7.77675 0.566406H7.69327C7.61996 0.566406 7.54692 0.566919 7.47418 0.567952L7.25688 0.572621C7.11263 0.576787 6.96964 0.583068 6.82802 0.591532L6.61665 0.605873C6.5816 0.608538 6.54664 0.611343 6.51177 0.614286L6.30369 0.633631C6.23471 0.640642 6.16611 0.64822 6.09791 0.656373L5.89454 0.682563C5.72609 0.705839 5.56024 0.732758 5.39724 0.76345L5.20302 0.802099L5.01162 0.844421L4.82315 0.890464C4.76083 0.906438 4.69901 0.92304 4.6377 0.940279L4.45536 0.993915C2.55744 1.57733 1.18969 2.80092 0.844426 4.9241C0.701931 5.80299 0.67751 6.57614 0.883449 7.56681C1.24601 9.27878 2.72473 10.471 4.37906 11.4728L4.62231 11.6181C4.66302 11.6421 4.70381 11.6659 4.74466 11.6897L4.99044 11.8314L5.36053 12.0399L5.8532 12.3117L6.5799 12.7099L6.93293 12.9064L7.27611 13.1022L7.49835 13.2328C7.53491 13.2545 7.57122 13.2763 7.60726 13.2981L7.82024 13.4291C8.72848 13.998 9.43981 14.5839 9.71439 15.2709C9.89423 15.7176 9.85217 16.2845 9.76719 16.6581L9.75266 16.7185C9.73168 16.8045 9.7059 16.8905 9.67404 16.9752L9.64009 17.0594C9.41164 17.5889 8.92133 18.043 7.83778 18.043C6.61298 18.043 5.88036 17.3295 5.88036 16.2578L5.87356 14.3711H0.612305V15.8703C0.612305 20.0786 3.78519 21.4618 7.29905 21.5657L7.51908 21.5706L7.73985 21.5722L7.95815 21.5706C8.06688 21.5691 8.17497 21.5663 8.28236 21.5624L8.49621 21.553C8.60265 21.5474 8.70837 21.5407 8.8133 21.5327L9.0221 21.5151L9.22871 21.4941C9.29721 21.4865 9.36533 21.4784 9.43305 21.4697L9.63502 21.4419C9.70193 21.4321 9.76843 21.4216 9.83451 21.4106L10.0314 21.3757C12.4767 20.9179 14.2991 19.6208 14.666 17.0838C14.7165 16.7214 14.7481 16.3861 14.7658 16.0788L14.7755 15.8781L14.7815 15.6858C14.7829 15.6231 14.7837 15.5618 14.784 15.5019L14.7833 15.3265L14.7799 15.1596L14.774 15.0014L14.7659 14.8518L14.756 14.7109L14.7446 14.5788L14.7255 14.3973L14.7049 14.2359L14.677 14.0523L14.6453 13.8744C14.3061 12.1872 12.8559 10.9869 11.2243 9.99971L10.9844 9.85673C10.9442 9.83314 10.904 9.80967 10.8636 9.78632L10.621 9.64754L10.3774 9.51133L10.1335 9.37749L9.88991 9.24584L8.8151 8.67531L8.47139 8.4911L8.24818 8.3694L8.03048 8.24835L7.81892 8.12778C7.78421 8.10771 7.74979 8.08765 7.71565 8.0676L7.51454 7.94737C6.6265 7.40644 5.97441 6.86524 5.82371 6.24558Z" fill="#1428A0"/>
</svg>
