<svg width="138" height="29" viewBox="0 0 138 29" fill="none" xmlns="http://www.w3.org/2000/svg">
<path d="M24.7642 15.0699L24.7824 15.0713L26.6781 15.2694C26.8112 15.2838 26.9334 15.3487 27.0197 15.4503L27.0338 15.4675L27.0158 15.4765C27.1044 15.5883 27.1435 15.7314 27.1238 15.8728C26.7097 19.1655 25.149 22.2072 22.7157 24.4639C20.191 26.8056 16.8747 28.1066 13.4311 28.1066C11.7586 28.1093 10.1003 27.8014 8.54064 27.1987L8.45567 27.1655C8.32801 27.1184 8.22544 27.0213 8.17114 26.8972L8.16297 26.8774C8.1098 26.7538 8.10684 26.6148 8.15411 26.4896L8.90236 24.664C9.00375 24.4059 9.29109 24.2759 9.55059 24.3674L9.56785 24.3739C13.3925 25.8506 17.7243 25.0189 20.73 22.2306C22.6432 20.4726 23.8769 18.0977 24.2151 15.5215C24.2509 15.2555 24.4817 15.062 24.7461 15.0691L24.7642 15.0699ZM69.5348 7.32217C71.1512 7.32217 72.4152 7.81533 73.2225 8.76245L73.2496 8.79455V7.99306C73.2604 7.76935 73.4336 7.58855 73.6547 7.56671L73.6728 7.56529H75.8296C76.0515 7.58063 76.228 7.75529 76.2472 7.97514L76.2484 7.99306V19.9658C76.3181 21.654 75.7992 23.314 74.7805 24.6621C73.6187 26.0759 71.8537 26.7918 69.5348 26.7918C66.3109 26.7918 63.7668 24.7521 63.3481 21.8388C63.3273 21.6285 63.4554 21.4329 63.6545 21.367L63.6723 21.3615L65.7796 20.8663C65.7905 20.8638 65.8016 20.8617 65.8127 20.8601C66.044 20.8262 66.2589 20.9862 66.2928 21.2175C66.4853 22.8517 67.8898 24.0708 69.5348 24.0317C72.0266 24.0317 73.199 22.7651 73.2222 20.1184L73.2225 20.0377V18.9887C72.2884 20.0363 70.9376 20.6152 69.5348 20.5691C65.9506 20.5691 63.3526 17.7864 63.3526 13.9591C63.3198 12.2371 63.9261 10.5639 65.0546 9.26279C66.2008 8.00356 67.8322 7.29692 69.5348 7.32217ZM4.62438 21.8838L4.6511 21.8836L4.67792 21.8838C5.53825 21.8937 6.23095 22.5893 6.2403 23.4465L6.24037 23.4734C6.24037 23.4822 6.24027 23.4912 6.24011 23.5001C6.22513 24.3778 5.50157 25.0773 4.62386 25.0624C3.74615 25.0474 3.04676 24.3238 3.06159 23.4461C3.07627 22.5863 3.77089 21.8975 4.62438 21.8838ZM106.869 7.15558L106.98 7.15639C110.833 7.2096 113.22 9.89155 113.22 14.1842C113.22 14.4114 113.208 14.6383 113.184 14.8642C113.164 15.0718 112.994 15.232 112.788 15.2419L112.77 15.2423H103.611C103.667 17.1659 105.258 18.6878 107.182 18.6599C108.673 18.7536 110.033 17.8052 110.46 16.3726C110.538 16.1669 110.76 16.0563 110.969 16.1153L110.986 16.1204L112.814 16.7643C112.916 16.7968 112.998 16.8684 113.045 16.9626L113.053 16.9805C113.103 17.0796 113.112 17.1949 113.076 17.3001C112.227 19.8142 109.834 21.4776 107.182 21.3976C105.443 21.4149 103.769 20.7355 102.535 19.511C101.188 18.0933 100.469 16.1926 100.54 14.2383C100.54 9.84751 103.696 7.20872 106.778 7.15638L106.869 7.15558ZM55.0451 7.15559H55.0496C58.9715 7.15559 61.4075 9.84819 61.4075 14.1842C61.4071 14.4114 61.3951 14.6383 61.3714 14.8642C61.3532 15.073 61.1822 15.2343 60.9745 15.2421L60.9571 15.2423H51.7987C51.8551 17.1712 53.4535 18.6953 55.3828 18.66C56.8753 18.7553 58.2353 17.8063 58.6608 16.3726C58.737 16.1653 58.9605 16.0539 59.1706 16.1151L59.1876 16.1204L61.0157 16.7643C61.1226 16.7988 61.2094 16.8775 61.2543 16.9805C61.2971 17.0827 61.2971 17.1979 61.2543 17.3001C60.4059 19.8125 58.0155 21.4756 55.3648 21.3976C53.6229 21.4173 51.9458 20.7377 50.709 19.511C49.3635 18.0923 48.6447 16.1923 48.7143 14.2383C48.7143 9.80316 51.9337 7.15559 55.0451 7.15559ZM41.1768 7.15103C42.9373 7.15103 44.3602 7.5788 45.4138 8.42076C46.1263 8.98855 46.6543 9.75474 46.9312 10.6226L46.9321 10.6261C46.9682 10.7757 46.8803 10.9265 46.7344 10.9698L46.7196 10.9738L44.5358 11.6943C44.4389 11.7327 44.331 11.7327 44.2341 11.6943C44.1514 11.6557 44.0892 11.5835 44.063 11.4962L44.0514 11.4532C43.8524 10.7422 43.2022 9.60051 41.1768 9.60051C39.7359 9.60051 38.8714 10.429 38.8714 11.2305L38.8717 11.2622C38.8826 11.7834 39.1659 12.4376 40.4086 12.6863L40.4474 12.6939L42.8518 13.1441C45.5085 13.6791 47.0399 15.123 47.0703 17.1354L47.0708 17.1966L47.0618 17.1606L47.0612 17.2217C47.0226 19.2389 45.0714 21.3615 41.4784 21.3615C37.2684 21.3615 35.616 18.9796 35.3098 17.5748C35.2898 17.4279 35.3794 17.289 35.5197 17.2458L35.5349 17.2416L37.7863 16.5392C37.8265 16.5326 37.8676 16.5326 37.9078 16.5392C37.9651 16.5381 38.0217 16.5503 38.0733 16.5745L38.0924 16.5842C38.1751 16.6238 38.2361 16.698 38.259 16.7868C38.5427 18.1377 39.7629 18.9436 41.519 18.9436C43.1535 18.9436 43.8964 18.0881 43.8964 17.3136C43.8964 16.5477 43.2489 15.9799 42.1327 15.7454L42.0953 15.7377L39.5693 15.2469C37.2144 14.8011 35.7466 13.3377 35.7466 11.4331C35.7466 9.1142 38.2365 7.15103 41.1768 7.15103ZM131.987 3.40031H133.955C134.187 3.41425 134.369 3.60255 134.378 3.83319L134.378 3.85056V7.54729H136.746C136.977 7.56348 137.156 7.75095 137.165 7.97985L137.166 7.99754V9.96072L137.166 9.97781C137.159 10.1979 136.984 10.3767 136.764 10.3879L136.746 10.3885H134.378V16.9579C134.378 18.0475 134.81 18.4979 135.922 18.4979C136.147 18.494 136.373 18.4769 136.596 18.4467L136.679 18.4348C136.802 18.414 136.927 18.4487 137.021 18.5294C137.106 18.6082 137.157 18.7167 137.165 18.8319L137.166 18.8536V20.7041C137.167 20.8927 137.044 21.0598 136.864 21.1139C136.345 21.2591 135.81 21.332 135.271 21.3307L135.198 21.33C132.848 21.33 131.382 19.834 131.353 17.4143L131.353 17.3407V10.4155H129.304C129.08 10.4024 128.901 10.2271 128.882 10.0058L128.88 9.98774V8.01553C128.88 7.78287 129.057 7.58923 129.286 7.56666L129.304 7.56529L129.855 7.56522L129.913 7.56417C130.556 7.5457 131.544 7.28512 131.564 5.84991L131.564 5.80469V3.85056C131.563 3.61789 131.741 3.42426 131.97 3.40168L131.987 3.40031ZM93.7437 7.15358L93.7952 7.15559H93.7906C96.1088 7.15559 98.4489 8.77071 98.4955 12.2982L98.4962 12.4056V20.7447C98.4857 20.9684 98.3119 21.1491 98.091 21.171L98.073 21.1725H95.916C95.6926 21.1592 95.514 20.984 95.494 20.7627L95.4927 20.7447V12.6759L95.4923 12.6137C95.4792 11.5856 95.1298 9.93368 93.0121 9.93368C91.4471 9.93368 90.3324 11.1517 90.3102 12.9237L90.3099 12.9775V20.7447C90.2994 20.9684 90.1263 21.1491 89.9047 21.171L89.8867 21.1725H87.7034C87.4793 21.1592 87.3006 20.984 87.2814 20.7627L87.2802 20.7447V12.6759L87.2798 12.6137C87.2667 11.5856 86.9172 9.93368 84.7988 9.93368C83.1718 9.93368 82.0701 11.1429 82.0482 12.9496L82.0479 13.0045V20.7447C82.0366 20.9684 81.8635 21.1491 81.6427 21.171L81.6247 21.1725H79.4677C79.2458 21.1571 79.0694 20.9824 79.0503 20.7626L79.0491 20.7447V7.96603C79.0596 7.7439 79.2305 7.56372 79.4498 7.53985L79.4677 7.53826H81.5436C81.7669 7.55142 81.9463 7.72668 81.9656 7.94799L81.9668 7.96603V8.73601C82.9005 7.71226 84.2281 7.13705 85.6136 7.15559C87.2184 7.10855 88.7159 7.957 89.4998 9.35732C90.4333 7.93093 92.0428 7.09647 93.7437 7.15358ZM126.039 8.74497C126.866 9.83355 127.292 11.1724 127.248 12.5371L127.246 12.5948V20.7447C127.235 20.9668 127.064 21.147 126.845 21.1709L126.827 21.1725H124.644C124.42 21.1592 124.241 20.984 124.221 20.7627L124.22 20.7447V13.0316C124.22 11.0143 123.27 9.98774 121.469 9.98774C120.673 9.96202 119.913 10.3164 119.42 10.9423C118.943 11.6293 118.697 12.4492 118.716 13.2841L118.718 13.3332V20.7447C118.707 20.9684 118.534 21.1491 118.313 21.171L118.295 21.1725H116.115C115.892 21.1592 115.713 20.984 115.693 20.7627L115.692 20.7447V7.957C115.703 7.73328 115.876 7.55255 116.097 7.53065L116.115 7.52922H118.245C118.467 7.54456 118.644 7.7193 118.663 7.93908L118.664 7.957V8.85757C119.577 7.75072 120.948 7.12354 122.383 7.15559C123.781 7.09581 125.129 7.6819 126.039 8.74497ZM0.539899 15.6161H16.0427C16.3276 15.6186 16.5578 15.8467 16.5649 16.1294L16.5651 16.1475V18.0882C16.5675 18.373 16.3432 18.607 16.0608 18.619L16.0427 18.6194H0.539899C0.254962 18.617 0.0248916 18.3888 0.0175781 18.1062V18.0881V16.1474V16.1293C0.024739 15.8528 0.245137 15.6285 0.5214 15.6166L0.539899 15.6161ZM69.9085 10.0148C67.7833 10.0148 66.4325 11.5277 66.4325 13.9591C66.4325 16.3906 67.7652 17.899 69.9085 17.899C71.9527 17.899 73.3306 16.3141 73.3306 13.9591C73.3306 11.5997 71.9527 10.0148 69.9085 10.0148ZM51.8945 12.6455L51.8887 12.6939H58.296C58.1401 10.9821 56.9337 9.91471 55.127 9.89353L55.0721 9.89321C53.4801 9.86732 52.1245 11.0317 51.9009 12.598L51.8945 12.6455ZM103.725 12.6455L103.719 12.6939H110.127C109.971 10.9821 108.764 9.91471 106.958 9.89353L106.903 9.89321C105.311 9.86732 103.955 11.0317 103.731 12.598L103.725 12.6455ZM17.9834 0.806722C18.1176 0.855145 18.2264 0.955852 18.285 1.08591C18.3389 1.2172 18.3389 1.36439 18.285 1.49561L17.6097 3.29675C17.5161 3.56381 17.224 3.70475 16.9568 3.61192C13.4184 2.37718 9.49224 3.07873 6.60054 5.46249C4.7984 6.97093 3.51879 9.01017 2.94436 11.289C2.88489 11.5191 2.67768 11.6801 2.44005 11.6808H2.32297L0.467844 11.235C0.329527 11.2025 0.210748 11.1145 0.139156 10.9918H0.130121C0.0550537 10.8692 0.0338929 10.721 0.071658 10.5821C0.808348 7.66499 2.45673 5.05912 4.77693 3.1436C8.46633 0.106253 13.4757 -0.780185 17.9834 0.806722ZM11.1168 8.58742H26.6195C26.8974 8.58968 27.1245 8.80702 27.1411 9.08225L27.1419 9.10068V11.0414C27.1442 11.3263 26.9202 11.5603 26.6376 11.5723L26.6195 11.5727H11.1168C10.8337 11.5679 10.6062 11.3406 10.5991 11.0598L10.5989 11.0414V9.11868C10.5964 8.83561 10.8178 8.60247 11.0984 8.58805L11.1168 8.58742ZM21.8787 2.6663L21.9054 2.66609L21.9323 2.66633C22.7926 2.67619 23.4853 3.37184 23.4946 4.22895L23.4947 4.25578C23.4947 4.26474 23.4946 4.2737 23.4944 4.28258C23.4795 5.16029 22.7559 5.85968 21.8782 5.84477C21.0005 5.82987 20.3011 5.10623 20.316 4.2286C20.3306 3.36872 21.0253 2.68004 21.8787 2.6663Z" fill="#4FB58B"/>
</svg>
