<svg width="103" height="147" viewBox="0 0 103 147" fill="none" xmlns="http://www.w3.org/2000/svg">
<path opacity="0.05" d="M102.244 146.423H2.284V119.903L49.612 69.9226C54.78 64.3466 58.316 60.0626 60.22 57.0706C62.26 53.9426 63.28 50.8826 63.28 47.8906C63.28 44.2186 62.124 41.3626 59.812 39.3226C57.636 37.1466 54.576 36.0586 50.632 36.0586C42.064 36.0586 35.672 41.0226 31.456 50.9506L0.0400001 33.4066C4.528 22.9346 11.192 14.8426 20.032 9.1306C29.008 3.4186 39.072 0.562601 50.224 0.562601C63.824 0.562601 75.452 4.6426 85.108 12.8026C94.9 20.8266 99.796 31.8426 99.796 45.8506C99.796 53.7386 97.96 61.2186 94.288 68.2906C90.616 75.2266 84.836 82.7746 76.948 90.9346L57.568 111.131H102.244V146.423Z" fill="black"/>
</svg>
