<svg width="105" height="147" viewBox="0 0 105 147" fill="none" xmlns="http://www.w3.org/2000/svg">
<path opacity="0.05" d="M97.96 29.3866L74.092 58.7626C83.34 61.6186 90.684 66.5826 96.124 73.6546C101.7 80.5906 104.488 88.8866 104.488 98.5426C104.488 113.775 99.456 125.607 89.392 134.039C79.464 142.335 67.02 146.483 52.06 146.483C39.956 146.483 29.348 143.763 20.236 138.323C11.124 132.747 4.596 124.723 0.652 114.251L32.476 96.0946C35.468 106.023 41.996 110.987 52.06 110.987C57.228 110.987 61.172 109.763 63.892 107.315C66.748 104.867 68.176 101.603 68.176 97.5226C68.176 93.4426 66.748 90.2466 63.892 87.9346C61.172 85.4866 57.228 84.2626 52.06 84.2626H44.308L30.232 63.4546L53.08 35.5066H5.14V0.622598H97.96V29.3866Z" fill="black"/>
</svg>
