<svg width="61" height="60" viewBox="0 0 61 60" fill="none" xmlns="http://www.w3.org/2000/svg">
<rect x="0.5" width="60" height="60" rx="5" fill="#E9ECF2"/>
<path d="M41 25.6245C41 24.5745 40.3881 23.6114 39.425 23.262C40.037 22.4745 40.1256 21.3375 39.6006 20.3745C39.0756 19.4114 38.0256 18.975 37.0625 19.062C37.1495 18.0989 36.7131 17.0489 35.75 16.5239C34.787 15.9989 33.737 16.0858 32.8625 16.6995C32.5131 15.738 31.55 15.1245 30.5 15.1245C29.45 15.1245 28.487 15.7364 28.1375 16.6995C27.2631 16.0875 26.2131 16.0005 25.25 16.5255C24.287 17.0506 23.8506 18.1005 23.9375 19.0636C22.9745 18.9767 21.9245 19.4131 21.3995 20.3761C20.8745 21.3392 20.9614 22.3892 21.575 23.2636C20.7006 23.7017 20 24.5761 20 25.6261C20 26.6761 20.6119 27.6392 21.575 27.9886C20.9631 28.7761 20.8744 29.913 21.3995 30.8761C21.9245 31.8392 22.9745 32.2755 23.9375 32.1886C23.8506 33.1517 24.287 34.2017 25.25 34.7267C25.25 34.7267 25.337 34.7267 25.337 34.8136L22.712 43.2136L26.0375 41.4631L27.7881 44.7886L30.5 36.1261H30.587H30.6739L33.3859 44.8756L35.1364 41.55L38.462 43.3006L35.7501 34.8136C35.7501 34.8136 35.837 34.8136 35.837 34.7267C36.8001 34.2017 37.2364 33.1517 37.1495 32.1886C38.1126 32.2756 39.1626 31.8392 39.6876 30.8761C40.2126 29.913 40.1256 28.863 39.512 27.9886C40.3881 27.6375 41.0001 26.6745 41.0001 25.6245L41 25.6245ZM30.5 31.7506C27.0875 31.7506 24.3756 29.0386 24.3756 25.6261C24.3756 22.2136 27.0875 19.5017 30.5 19.5017C33.9125 19.5017 36.6245 22.2136 36.6245 25.6261C36.6245 29.037 33.9125 31.7506 30.5 31.7506Z" fill="black"/>
</svg>
