<svg width="61" height="60" viewBox="0 0 61 60" fill="none" xmlns="http://www.w3.org/2000/svg">
<rect x="0.5" width="60" height="60" rx="5" fill="#E9ECF2"/>
<path d="M30.5001 22.125C26.6495 22.125 23.4995 25.275 23.4995 29.1256C23.4995 30.7006 24.0245 32.1 24.899 33.2386C24.899 33.2386 25.1615 33.5881 25.2484 33.6767C26.0359 34.6397 27.9603 37.3517 27.9603 39.6272H33.2103C33.2103 37.3517 35.1348 34.6397 35.9223 33.6767C36.0092 33.5897 36.2717 33.2386 36.2717 33.2386C37.1462 32.1017 37.6712 30.6136 37.6712 29.1256C37.5005 25.275 34.3506 22.125 30.5001 22.125H30.5001Z" fill="black"/>
<path d="M27.875 41.3745H33.125V44.8739H27.875V41.3745Z" fill="black"/>
<path d="M16.5005 28.2495H21.7505V30H16.5005V28.2495Z" fill="black"/>
<path d="M39.2495 28.2495H44.4995V30H39.2495V28.2495Z" fill="black"/>
<path d="M39.7908 18.6058L41.0279 19.8429L37.3152 23.5556L36.0781 22.3186L39.7908 18.6058Z" fill="black"/>
<path d="M29.6255 15.1245H31.3761V20.3744H29.6255V15.1245Z" fill="black"/>
<path d="M21.219 18.5978L24.9317 22.3106L23.6947 23.5476L19.9819 19.8349L21.219 18.5978Z" fill="black"/>
</svg>
