<svg width="183" height="23" viewBox="0 0 183 23" fill="none" xmlns="http://www.w3.org/2000/svg">
<path d="M13.7359 11.2559C14.8948 10.2495 15.5962 8.84662 15.5962 7.07777C15.5962 3.38757 12.577 0.978276 8.8563 0.978276H0.5V22.3265H9.46625C13.2784 22.3265 16.3587 19.8562 16.3587 16.0745C16.3587 13.9092 15.3218 12.2623 13.7359 11.2559ZM8.8563 5.55289C9.98471 5.55289 10.7166 6.34583 10.7166 7.44374C10.7166 8.54164 9.95421 9.33458 8.8563 9.33458H5.37959V5.55289H8.8563ZM9.46625 17.7519H5.37959V13.6652H9.46625C10.6861 13.6652 11.4791 14.5191 11.4791 15.7085C11.4791 16.8979 10.6861 17.7519 9.46625 17.7519Z" fill="#FF9900"/>
<path d="M28.7826 7.07777V15.4036C28.7826 17.5689 27.6237 18.5448 25.9463 18.5448C24.4824 18.5448 23.293 17.6604 23.293 15.7695V7.07777H18.7184V16.4405C18.7184 20.5576 21.3412 22.7535 24.4214 22.7535C26.4343 22.7535 27.9591 22.0215 28.7826 20.8931V22.3265H33.3572V7.07777H28.7826Z" fill="#FF9900"/>
<path d="M40.8939 11.5304C40.8939 10.9814 41.3818 10.6765 42.1748 10.6765C43.1812 10.6765 43.7911 11.2254 44.2181 12.0184L48.1218 9.91403C46.8409 7.74871 44.6451 6.6508 42.1748 6.6508C39.003 6.6508 36.1973 8.32816 36.1973 11.6524C36.1973 16.9284 43.6996 16.044 43.6996 17.7214C43.6996 18.3313 43.1507 18.6668 42.0528 18.6668C40.7109 18.6668 39.857 18.0264 39.4605 16.8674L35.4958 19.1243C36.6852 21.5946 39.003 22.7535 42.0528 22.7535C45.3465 22.7535 48.3962 21.2591 48.3962 17.7519C48.3962 12.1098 40.8939 13.2687 40.8939 11.5304Z" fill="#FF9900"/>
<path d="M52.9675 5.73588C54.4619 5.73588 55.7123 4.48548 55.7123 2.99111C55.7123 1.49673 54.4619 0.246338 52.9675 0.246338C51.4731 0.246338 50.2227 1.49673 50.2227 2.99111C50.2227 4.48548 51.4731 5.73588 52.9675 5.73588ZM50.6802 22.3265H55.2548V7.07777H50.6802V22.3265Z" fill="#FF9900"/>
<path d="M67.5382 6.6508C65.5253 6.6508 64.0004 7.38274 63.177 8.51115V7.07777H58.6024V22.3265H63.177V14.0007C63.177 11.8354 64.3359 10.8595 66.0133 10.8595C67.4772 10.8595 68.6666 11.7439 68.6666 13.6347V22.3265H73.2412V12.9638C73.2412 8.84662 70.6184 6.6508 67.5382 6.6508Z" fill="#FF9900"/>
<path d="M80.4693 16.532H91.2959C91.4179 15.9525 91.4789 15.3426 91.4789 14.7021C91.4789 10.097 88.1852 6.6508 83.7325 6.6508C78.9139 6.6508 75.6202 10.158 75.6202 14.7021C75.6202 19.2463 78.8529 22.7535 84.068 22.7535C86.9653 22.7535 89.2221 21.686 90.7165 19.6122L87.0568 17.5079C86.4468 18.1788 85.3794 18.6668 84.129 18.6668C82.4516 18.6668 81.0488 18.1178 80.4693 16.532ZM80.3778 13.1163C80.8048 11.5609 81.9637 10.707 83.702 10.707C85.0744 10.707 86.4468 11.3474 86.9348 13.1163H80.3778Z" fill="#FF9900"/>
<path d="M97.8085 11.5304C97.8085 10.9814 98.2965 10.6765 99.0894 10.6765C100.096 10.6765 100.706 11.2254 101.133 12.0184L105.036 9.91403C103.756 7.74871 101.56 6.6508 99.0894 6.6508C95.9177 6.6508 93.1119 8.32816 93.1119 11.6524C93.1119 16.9284 100.614 16.044 100.614 17.7214C100.614 18.3313 100.065 18.6668 98.9674 18.6668C97.6255 18.6668 96.7716 18.0264 96.3752 16.8674L92.4105 19.1243C93.5999 21.5946 95.9177 22.7535 98.9674 22.7535C102.261 22.7535 105.311 21.2591 105.311 17.7519C105.311 12.1098 97.8085 13.2687 97.8085 11.5304Z" fill="#FF9900"/>
<path d="M111.151 11.5304C111.151 10.9814 111.639 10.6765 112.432 10.6765C113.438 10.6765 114.048 11.2254 114.475 12.0184L118.379 9.91403C117.098 7.74871 114.902 6.6508 112.432 6.6508C109.26 6.6508 106.455 8.32816 106.455 11.6524C106.455 16.9284 113.957 16.044 113.957 17.7214C113.957 18.3313 113.408 18.6668 112.31 18.6668C110.968 18.6668 110.114 18.0264 109.718 16.8674L105.753 19.1243C106.943 21.5946 109.26 22.7535 112.31 22.7535C115.604 22.7535 118.654 21.2591 118.654 17.7519C118.654 12.1098 111.151 13.2687 111.151 11.5304Z" fill="#FF9900"/>
<path d="M132.828 0.978276V9.15159H126.119V0.978276H121.239V22.3265H126.119V13.8482H132.828V22.3265H137.708V0.978276H132.828Z" fill="#4F46BA"/>
<path d="M151.07 7.07777V15.4036C151.07 17.5689 149.911 18.5448 148.234 18.5448C146.77 18.5448 145.581 17.6604 145.581 15.7695V7.07777H141.006V16.4405C141.006 20.5576 143.629 22.7535 146.709 22.7535C148.722 22.7535 150.247 22.0215 151.07 20.8931V22.3265H155.645V7.07777H151.07Z" fill="#4F46BA"/>
<path d="M168.118 6.6508C166.075 6.6508 164.581 7.35224 163.574 8.51115V0.978276H159V22.3265H163.574V20.8931C164.581 22.052 166.075 22.7535 168.118 22.7535C172.114 22.7535 175.407 19.2463 175.407 14.7021C175.407 10.158 172.114 6.6508 168.118 6.6508ZM167.204 18.4228C165.099 18.4228 163.574 16.9894 163.574 14.7021C163.574 12.4148 165.099 10.9814 167.204 10.9814C169.308 10.9814 170.833 12.4148 170.833 14.7021C170.833 16.9894 169.308 18.4228 167.204 18.4228Z" fill="#4F46BA"/>
<path d="M179.372 22.7535C180.958 22.7535 182.27 21.4421 182.27 19.8562C182.27 18.2703 180.958 16.9589 179.372 16.9589C177.786 16.9589 176.475 18.2703 176.475 19.8562C176.475 21.4421 177.786 22.7535 179.372 22.7535Z" fill="#4F46BA"/>
</svg>
