<svg width="61" height="60" viewBox="0 0 61 60" fill="none" xmlns="http://www.w3.org/2000/svg">
<path d="M48.8748 40.6242L44.3748 33.75V33.6258L51.7506 30L44.3748 26.3742V26.25L48.8748 19.3758L40.6248 19.875L41.124 11.625L34.2498 16.125H34.1256L30.4998 8.74918L26.874 16.125H26.7498L19.8756 11.625L20.3748 19.875L12.1248 19.3758L16.6248 26.25V26.3742L9.24902 30L16.6248 33.6258V33.75L12.1248 40.6242L20.3748 40.125L19.8756 48.375L26.7498 43.875H26.874L30.4998 51.2508L34.1256 43.875H34.2498L41.124 48.375L40.6248 40.125L48.8748 40.6242ZM30.4998 40.0007C24.999 40.0007 20.499 35.5007 20.499 29.9999C20.499 24.4991 24.999 19.9991 30.4998 19.9991C36.0006 19.9991 40.5006 24.4991 40.5006 29.9999C40.5006 35.5007 36.0006 40.0007 30.4998 40.0007Z" fill="#F57059"/>
<path d="M30.5 22.5C26.375 22.5 23 25.875 23 30C23 34.125 26.375 37.5 30.5 37.5C34.625 37.5 38 34.125 38 30C38 25.875 34.625 22.5 30.5 22.5Z" fill="#F57059"/>
</svg>
