<svg width="61" height="60" viewBox="0 0 61 60" fill="none" xmlns="http://www.w3.org/2000/svg">
<path d="M42.8751 15C42.9994 13.7508 42.9994 12.6258 42.9994 11.25H18.001C18.001 12.6258 18.001 13.7508 18.1252 15H10.501V16.2492C10.501 27.375 24.6268 35.25 28.0018 36.9984L27.9994 41.2499C27.9994 43.3757 26.3752 44.9999 24.2494 44.9999H21.7486V49.9991H39.2494V44.9999H36.7486C34.6228 44.9999 32.9986 43.3757 32.9986 41.2499V37.0007C36.3736 35.2499 50.4994 27.3749 50.4994 16.2515V15.0023L42.8751 15ZM13.1259 17.5008H18.3759C18.8752 23.1258 20.2509 27.1266 21.7509 30C17.7501 26.8758 13.6251 22.5 13.1259 17.5008ZM39.3759 30C40.8759 27.1242 42.2517 23.1258 42.7509 17.5008H48.0009C47.3751 22.5 43.2501 26.8758 39.3759 30Z" fill="#F57059"/>
</svg>
