<svg width="61" height="60" viewBox="0 0 61 60" fill="none" xmlns="http://www.w3.org/2000/svg">
<path d="M11.7502 28.7508C11.626 28.7508 11.3752 28.7508 11.251 28.875C10.7494 28.9992 10.501 29.5008 10.501 30V38.7492C10.501 44.3742 16.126 49.9992 21.751 49.9992H25.501V42L12.6244 29.1258C12.3759 28.875 12.1252 28.7508 11.7502 28.7508L11.7502 28.7508Z" fill="#F57059"/>
<path d="M49.7495 28.875C49.6252 28.7508 49.3745 28.7508 49.2502 28.7508C48.8752 28.7508 48.6244 28.875 48.376 29.1258L33.001 44.5008V32.25C49.126 29.8758 40.3768 10.7508 40.3768 10.7508C40.2503 10.3758 39.751 10.0008 39.2495 10.0008C38.7503 10.0008 38.2487 10.3758 38.1245 10.875L34.8737 16.6242L31.6229 10.875C31.501 10.3758 30.9994 10.0008 30.5002 10.0008C30.001 10.0008 29.4994 10.3758 29.3752 10.875L26.1244 16.6242L22.8736 10.875C22.7494 10.3758 22.2502 10.0008 21.751 10.0008C21.2518 10.0008 20.7502 10.3758 20.626 10.875C20.626 10.875 11.8768 30 28.0018 32.3742L27.9994 49.9992H39.2494C44.8744 49.9992 50.4994 44.3742 50.4994 38.7492V30C50.4994 29.5008 50.251 28.9992 49.7494 28.875L49.7495 28.875Z" fill="#F57059"/>
</svg>
