<svg width="21" height="20" viewBox="0 0 21 20" fill="none" xmlns="http://www.w3.org/2000/svg">
<g clip-path="url(#clip0_5_279)">
<path d="M20.4951 20V19.9991H20.5001V12.6641C20.5001 9.07581 19.7276 6.31165 15.5326 6.31165C13.5159 6.31165 12.1626 7.41831 11.6101 8.46748H11.5517V6.64665H7.57422V19.9991H11.7159V13.3875C11.7159 11.6466 12.0459 9.96331 14.2017 9.96331C16.3259 9.96331 16.3576 11.95 16.3576 13.4991V20H20.4951Z" fill="#3734A9"/>
<path d="M0.830078 6.64771H4.97675V20.0002H0.830078V6.64771Z" fill="#3734A9"/>
<path d="M2.90167 0C1.57583 0 0.5 1.07583 0.5 2.40167C0.5 3.7275 1.57583 4.82583 2.90167 4.82583C4.2275 4.82583 5.30333 3.7275 5.30333 2.40167C5.3025 1.07583 4.22667 0 2.90167 0V0Z" fill="#3734A9"/>
</g>
<defs>
<clipPath id="clip0_5_279">
<rect width="20" height="20" fill="white" transform="translate(0.5)"/>
</clipPath>
</defs>
</svg>
