<svg width="27" height="27" viewBox="0 0 27 27" fill="none" xmlns="http://www.w3.org/2000/svg">
<path fill-rule="evenodd" clip-rule="evenodd" d="M7.97824 26.4166H19.1726C23.5518 26.4166 26.4928 23.3449 26.4928 18.7742V8.22568C26.4928 3.65498 23.5518 0.583252 19.1739 0.583252H7.97824C3.60041 0.583252 0.659424 3.65498 0.659424 8.22568V18.7742C0.659424 23.3449 3.60041 26.4166 7.97824 26.4166ZM9.05378 12.2083C7.27303 12.2083 5.82609 10.7593 5.82609 8.97909C5.82609 7.19882 7.27303 5.74992 9.05378 5.74992C10.8332 5.74992 12.2815 7.19882 12.2815 8.97909C12.2815 10.7593 10.8332 12.2083 9.05378 12.2083ZM23.678 17.2896C24.1105 18.3987 23.8858 19.7316 23.4234 20.83C22.8753 22.1364 21.8258 23.1254 20.5035 23.5573C19.9164 23.7493 19.3008 23.8333 18.6864 23.8333H7.80059C6.71733 23.8333 5.75877 23.5733 4.97295 23.0894C4.48068 22.7855 4.39365 22.0844 4.75864 21.6298C5.36911 20.87 5.97178 20.1075 6.57965 19.3384C7.73824 17.8668 8.51886 17.4402 9.38651 17.8148C9.7385 17.9694 10.0918 18.2014 10.4555 18.4466C11.4244 19.1051 12.7714 20.0102 14.5456 19.0278C15.7598 18.3478 16.464 17.1813 17.0773 16.1656L17.0875 16.1486C17.1308 16.0776 17.1737 16.0066 17.2164 15.9359L17.217 15.935C17.4231 15.594 17.6264 15.2575 17.8564 14.9475C18.1448 14.5596 19.2138 13.3466 20.5984 14.2104C21.4803 14.7543 22.2219 15.4901 23.0156 16.2779C23.3182 16.5791 23.5338 16.9217 23.678 17.2896Z" fill="white"/>
</svg>
