<svg width="21" height="20" viewBox="0 0 21 20" fill="none" xmlns="http://www.w3.org/2000/svg">
<g clip-path="url(#clip0_5_283)">
<path d="M18.4191 5.9275C19.2325 5.35 19.9166 4.62917 20.4741 3.79917V3.79833C19.73 4.12417 18.9383 4.34083 18.1116 4.44583C18.9616 3.93833 19.6108 3.14083 19.9158 2.18C19.1233 2.6525 18.2483 2.98583 17.3158 3.1725C16.5633 2.37083 15.4908 1.875 14.3208 1.875C12.0508 1.875 10.2233 3.7175 10.2233 5.97583C10.2233 6.30083 10.2508 6.61333 10.3183 6.91083C6.90996 6.74417 3.89329 5.11083 1.86662 2.62167C1.51329 3.23583 1.30495 3.93833 1.30495 4.69417C1.30495 6.11417 2.03579 7.3725 3.12662 8.10167C2.46745 8.08917 1.82162 7.8975 1.27412 7.59667V7.64167C1.27412 9.63417 2.69495 11.2892 4.55912 11.6708C4.22495 11.7625 3.86162 11.8058 3.48412 11.8058C3.22162 11.8058 2.95662 11.7908 2.70829 11.7358C3.23912 13.3592 4.74745 14.5533 6.53912 14.5925C5.14412 15.6833 3.37245 16.3408 1.45495 16.3408C1.11912 16.3408 0.796621 16.3258 0.474121 16.285C2.29079 17.4558 4.44245 18.125 6.76412 18.125C14 18.125 18.7158 12.0883 18.4191 5.9275Z" fill="#3734A9"/>
</g>
<defs>
<clipPath id="clip0_5_283">
<rect width="20" height="20" fill="white" transform="translate(0.474121)"/>
</clipPath>
</defs>
</svg>
