<svg width="21" height="20" viewBox="0 0 21 20" fill="none" xmlns="http://www.w3.org/2000/svg">
<g clip-path="url(#clip0_5_285)">
<path d="M8.89178 14.0991C8.94512 14.0541 8.99928 14.0075 9.04928 13.9583C6.26512 16.69 1.72512 15.415 0.660951 11.5625V11.5566C-0.766549 6.31496 5.25262 2.33329 9.04762 5.99996C9.12678 6.08412 14.3693 11.675 14.036 11.3191H14.051C14.8335 12.1258 15.9651 12.0375 16.6385 11.3325C17.3626 10.5758 17.3885 9.34079 16.6776 8.57162C15.5551 7.27912 13.351 8.24496 13.5618 10.1608L12.3001 8.87579L10.8368 7.47662C11.1385 6.87746 11.5343 6.35329 12.0301 5.89996C11.9768 5.94579 11.9226 5.99329 11.8726 6.04079C14.6676 3.29912 19.2043 4.60412 20.261 8.43996V8.44496C21.6918 13.6858 15.666 17.6675 11.8743 14.0008C11.7968 13.9175 6.55762 8.29162 6.88928 8.64829L6.88595 8.63579C6.87262 8.63579 6.87262 8.62329 6.87262 8.62329C6.05095 7.77579 4.93678 7.90329 4.28512 8.59746C3.56012 9.35412 3.53512 10.5891 4.24762 11.3466C5.32095 12.6091 7.57262 11.6733 7.36095 9.71912C7.44262 9.80329 10.2685 12.7041 10.0885 12.52C9.63095 13.4325 9.11928 13.8516 8.89178 14.0991Z" fill="#3734A9"/>
</g>
<defs>
<clipPath id="clip0_5_285">
<rect width="20" height="20" fill="white" transform="translate(0.460938)"/>
</clipPath>
</defs>
</svg>
